<?xml version="1.0" standalone="no"?>
<!DOCTYPE svg PUBLIC "-//W3C//DTD SVG 1.1//EN" "http://www.w3.org/Graphics/SVG/1.1/DTD/svg11.dtd">
<svg xmlns="http://www.w3.org/2000/svg" id="Ebene_1" viewBox="0 0 64 64" width="64" height="64"><defs><style>.cls-1{fill:#ff6c26;}.cls-2{fill:#fff;fill-rule:evenodd;}</style></defs><circle class="cls-1" cx="32" cy="32" r="32"/><g><path class="cls-2" d="M50.61,28.4l-10.76,10.76-1.77-1.95c2.93-2.86,2.99-7.55,.14-10.48-1.4-1.44-3.33-2.25-5.34-2.24h-6.3l-9.71-10.75h15.87c3.26-.03,6.47,.84,9.27,2.51-.34,.33-.53,.78-.53,1.25v5.81c0,.94,.75,1.71,1.69,1.71,0,0,.01,0,.02,0h5.82c.18,0,.37-.03,.54-.09,.48,1.11,.83,2.27,1.06,3.46Z"/><path class="cls-2" d="M50.95,31.89c.01,5.02-2.06,9.83-5.72,13.27l-4.58-5.07,10.19-10.19c.07,.66,.11,1.32,.11,1.98Z"/><path class="cls-2" d="M38.11,40.9l-9.16,9.16H15.76v-6.13h1.63c.95,.02,1.74-.74,1.76-1.69h0v-5.85c0-.95-.77-1.73-1.73-1.73h-1.66V16.16l10.63,11.77v11.38h6.53c1.08,0,2.15-.24,3.13-.7l2.07,2.29Z"/><path class="cls-2" d="M43.33,46.68c-3.08,2.18-6.77,3.34-10.54,3.32h-2.13l8.26-8.26,4.41,4.94Z"/><path class="cls-2" d="M44.26,17.51h3.64c.61,0,1.11,.5,1.11,1.11v3.68c0,.61-.5,1.11-1.11,1.11h-3.64c-.61,0-1.11-.5-1.11-1.11v-3.72c.02-.6,.51-1.07,1.11-1.07Z"/><path class="cls-2" d="M51.65,15.07h2.67c.43,0,.77,.35,.77,.77h0v2.68c0,.43-.34,.78-.76,.79h-2.68c-.43,0-.78-.35-.79-.79v-2.67c0-.43,.35-.79,.79-.79Z"/><path class="cls-2" d="M46.39,12.05h2.21c.35,0,.64,.29,.64,.64v2.21c0,.35-.29,.64-.64,.64h-2.21c-.35,0-.64-.27-.64-.62,0,0,0-.01,0-.02v-2.21c0-.35,.29-.64,.64-.64h0Z"/><path class="cls-2" d="M16.32,42.22h-3.69c-.61,0-1.11-.5-1.11-1.11v-3.67c0-.61,.5-1.11,1.11-1.11h3.69c.61,0,1.11,.5,1.11,1.11v3.69c-.01,.6-.5,1.08-1.11,1.08Z"/><path class="cls-2" d="M8.77,43.29h-2.67c-.43,0-.78-.34-.79-.76h0v-2.62c0-.43,.36-.77,.79-.77h2.67c.43,0,.78,.34,.79,.77v2.67c-.03,.41-.37,.73-.79,.72Z"/><path class="cls-2" d="M12.67,48h-2.21c-.35,0-.63-.28-.63-.63v-2.21c0-.35,.28-.62,.63-.63h2.21c.35,0,.62,.28,.63,.63v2.21c0,.35-.28,.63-.63,.63Z"/></g></svg>